<?xml version="1.0" encoding="UTF-8" standalone="no"?>
<!-- Created with Inkscape (http://www.inkscape.org/) -->

<svg
   xmlns:dc="http://purl.org/dc/elements/1.1/"
   xmlns:cc="http://creativecommons.org/ns#"
   xmlns:rdf="http://www.w3.org/1999/02/22-rdf-syntax-ns#"
   xmlns:svg="http://www.w3.org/2000/svg"
   xmlns="http://www.w3.org/2000/svg"
   xmlns:sodipodi="http://sodipodi.sourceforge.net/DTD/sodipodi-0.dtd"
   xmlns:inkscape="http://www.inkscape.org/namespaces/inkscape"
   width="210mm"
   height="297mm"
   viewBox="0 0 744.09448819 1052.3622047"
   id="svg2"
   version="1.1"
   inkscape:version="0.91 r13725"
   sodipodi:docname="logo-bika.svg">
  <defs
     id="defs4" />
  <sodipodi:namedview
     id="base"
     pagecolor="#ffffff"
     bordercolor="#666666"
     borderopacity="1.0"
     inkscape:pageopacity="0.0"
     inkscape:pageshadow="2"
     inkscape:zoom="0.98994949"
     inkscape:cx="568.22834"
     inkscape:cy="505.91658"
     inkscape:document-units="px"
     inkscape:current-layer="layer1"
     showgrid="false"
     showguides="true"
     inkscape:guide-bbox="true"
     inkscape:window-width="1881"
     inkscape:window-height="1056"
     inkscape:window-x="1405"
     inkscape:window-y="24"
     inkscape:window-maximized="1" />
  <metadata
     id="metadata7">
    <rdf:RDF>
      <cc:Work
         rdf:about="">
        <dc:format>image/svg+xml</dc:format>
        <dc:type
           rdf:resource="http://purl.org/dc/dcmitype/StillImage" />
        <dc:title></dc:title>
      </cc:Work>
    </rdf:RDF>
  </metadata>
  <g
     inkscape:label="Capa 1"
     inkscape:groupmode="layer"
     id="layer1">
    <circle
       style="opacity:1;fill:#002255;fill-opacity:1;stroke:#e76302;stroke-width:0;stroke-linecap:round;stroke-linejoin:round;stroke-miterlimit:4;stroke-dasharray:none;stroke-dashoffset:0;stroke-opacity:1"
       id="circle4263"
       cx="353.73462"
       cy="534.2002"
       r="214.28571" />
    <circle
       r="214.28571"
       cy="535.21033"
       cx="999.22211"
       id="circle4142"
       style="opacity:1;fill:#002255;fill-opacity:1;stroke:#e76302;stroke-width:0;stroke-linecap:round;stroke-linejoin:round;stroke-miterlimit:4;stroke-dasharray:none;stroke-dashoffset:0;stroke-opacity:1" />
    <circle
       style="opacity:1;fill:#ffffff;fill-opacity:1;stroke:#e76302;stroke-width:0;stroke-linecap:round;stroke-linejoin:round;stroke-miterlimit:4;stroke-dasharray:none;stroke-dashoffset:0;stroke-opacity:1"
       id="circle4265"
       cx="353.73462"
       cy="534.2002"
       r="202.85715" />
    <circle
       r="202.85715"
       cy="535.21033"
       cx="999.22211"
       id="circle4242"
       style="opacity:1;fill:#ffffff;fill-opacity:1;stroke:#e76302;stroke-width:0;stroke-linecap:round;stroke-linejoin:round;stroke-miterlimit:4;stroke-dasharray:none;stroke-dashoffset:0;stroke-opacity:1" />
    <text
       sodipodi:linespacing="125%"
       id="text4267"
       y="582.38367"
       x="215.03351"
       style="font-style:normal;font-variant:normal;font-weight:normal;font-stretch:normal;font-size:138.53648376px;line-height:125%;font-family:Comfortaa;-inkscape-font-specification:Comfortaa;letter-spacing:0px;word-spacing:0px;fill:#002255;fill-opacity:1;stroke:none;stroke-width:1px;stroke-linecap:butt;stroke-linejoin:miter;stroke-opacity:1"
       xml:space="preserve"><tspan
         style="font-style:normal;font-variant:normal;font-weight:normal;font-stretch:normal;font-family:Comfortaa;-inkscape-font-specification:Comfortaa;fill:#002255;fill-opacity:1"
         y="582.38367"
         x="215.03351"
         id="tspan4269"
         sodipodi:role="line">bika</tspan></text>
    <path
       inkscape:connector-curvature="0"
       id="path4272"
       style="font-style:normal;font-variant:normal;font-weight:normal;font-stretch:normal;font-size:medium;line-height:125%;font-family:Comfortaa;-inkscape-font-specification:Comfortaa;letter-spacing:0px;word-spacing:0px;fill:#002255;fill-opacity:1;stroke:none;stroke-width:1px;stroke-linecap:butt;stroke-linejoin:miter;stroke-opacity:1"
       d="m 903.81365,572.57064 q 11.22903,0 19.14347,-7.91444 7.91443,-7.91444 7.91443,-19.14347 0,-11.22903 -7.91443,-19.14347 -7.91444,-7.91444 -19.14347,-7.91444 -11.22903,0 -19.14347,7.91444 -7.91444,7.91444 -7.91444,19.14347 0,11.22903 7.91444,19.14347 7.91444,7.91444 19.14347,7.91444 z m -27.05791,-53.57466 q 0.13529,-0.13529 0.27058,-0.27058 11.09374,-11.09374 26.78733,-11.09374 15.69358,0 26.78733,11.09374 11.09374,11.09374 11.09374,26.78733 0,15.69359 -11.09374,26.78733 -11.09375,11.09374 -26.78733,11.09374 -15.69359,0 -26.78733,-11.09374 -11.09374,-11.09374 -11.09374,-26.78733 l 0,-65.07427 q 0,-2.23227 1.55583,-3.7881 1.62347,-1.62348 3.85575,-1.62348 2.23228,0 3.78811,1.62348 1.62347,1.55583 1.62347,3.7881 l 0,38.55752 z" />
    <path
       inkscape:connector-curvature="0"
       id="path4274"
       style="font-style:normal;font-variant:normal;font-weight:normal;font-stretch:normal;font-size:medium;line-height:125%;font-family:Comfortaa;-inkscape-font-specification:Comfortaa;letter-spacing:0px;word-spacing:0px;fill:#002255;fill-opacity:1;stroke:none;stroke-width:1px;stroke-linecap:butt;stroke-linejoin:miter;stroke-opacity:1"
       d="m 970.10552,491.39692 q 0,2.77343 -2.02934,4.80277 -1.9617,1.9617 -4.73514,1.9617 -2.77343,0 -4.80277,-1.9617 -1.9617,-2.02934 -1.9617,-4.80277 0,-2.77344 1.9617,-4.73514 2.02934,-2.02934 4.80277,-2.02934 2.77344,0 4.73514,2.02934 2.02934,1.9617 2.02934,4.73514 z m -12.17606,21.64632 q 0,-2.23228 1.55583,-3.78811 1.62348,-1.62347 3.85575,-1.62347 2.23228,0 3.78811,1.62347 1.62348,1.55583 1.62348,3.78811 l 0,64.93898 q 0,2.23227 -1.62348,3.85575 -1.55583,1.55583 -3.78811,1.55583 -2.23227,0 -3.85575,-1.55583 -1.55583,-1.62348 -1.55583,-3.85575 l 0,-64.93898 z" />
    <path
       inkscape:connector-curvature="0"
       id="path4276"
       style="font-style:normal;font-variant:normal;font-weight:normal;font-stretch:normal;font-size:medium;line-height:125%;font-family:Comfortaa;-inkscape-font-specification:Comfortaa;letter-spacing:0px;word-spacing:0px;fill:#002255;fill-opacity:1;stroke:none;stroke-width:1px;stroke-linecap:butt;stroke-linejoin:miter;stroke-opacity:1"
       d="M 995.81053,538.20709 1041.606,508.4434 q 1.2853,-0.81174 2.9088,-0.81174 2.2322,0 3.7881,1.62347 1.6234,1.55583 1.6234,3.78811 0,2.23228 -1.5558,3.78811 -0.4058,0.40587 -0.7441,0.67645 l -31.3871,20.42872 32.1989,36.25759 q 1.4881,1.62347 1.4881,3.78811 0,2.23227 -1.6234,3.85575 -1.5559,1.55583 -3.7881,1.55583 -2.2323,0 -3.9234,-1.62348 l -33.6195,-37.88107 -11.16137,7.23799 0,26.85498 q 0,2.23227 -1.62347,3.85575 -1.55583,1.55583 -3.78811,1.55583 -2.23227,0 -3.85575,-1.55583 -1.55583,-1.62348 -1.55583,-3.85575 l 0,-97.40847 q 0,-2.23228 1.55583,-3.7881 1.62348,-1.62348 3.85575,-1.62348 2.23228,0 3.78811,1.62348 1.62347,1.55582 1.62347,3.7881 l 0,57.63334 z" />
    <path
       inkscape:connector-curvature="0"
       id="path4278"
       style="font-style:normal;font-variant:normal;font-weight:normal;font-stretch:normal;font-size:medium;line-height:125%;font-family:Comfortaa;-inkscape-font-specification:Comfortaa;letter-spacing:0px;word-spacing:0px;fill:#002255;fill-opacity:1;stroke:none;stroke-width:1px;stroke-linecap:butt;stroke-linejoin:miter;stroke-opacity:1"
       d="m 1098.6306,518.45482 q -11.2291,0 -19.1435,7.91444 -7.9144,7.91444 -7.9144,19.14347 0,11.22903 7.9144,19.14347 7.9144,7.91444 19.1435,7.91444 11.229,0 19.1434,-7.91444 7.9145,-7.91444 7.9145,-19.14347 0,-11.22903 -7.9145,-19.14347 -7.9144,-7.91444 -19.1434,-7.91444 z m 27.0579,53.57466 q -11.3643,11.36432 -27.0579,11.36432 -15.6936,0 -26.7874,-11.09374 -11.0937,-11.09374 -11.0937,-26.78733 0,-15.69359 11.0937,-26.78733 11.0938,-11.09374 26.7874,-11.09374 15.6936,0 26.7873,11.09374 11.0937,11.09374 11.0937,26.78733 l 0,32.46949 q 0,2.23227 -1.6234,3.85575 -1.5559,1.55583 -3.7881,1.55583 -2.2323,0 -3.8558,-1.55583 -1.5558,-1.62348 -1.5558,-3.85575 l 0,-5.95274 z" />
    <text
       xml:space="preserve"
       style="font-style:normal;font-variant:normal;font-weight:normal;font-stretch:normal;font-size:24px;line-height:125%;font-family:'Open Sans';-inkscape-font-specification:'Open Sans';letter-spacing:0px;word-spacing:0px;fill:#000000;fill-opacity:1;stroke:none;stroke-width:1px;stroke-linecap:butt;stroke-linejoin:miter;stroke-opacity:1"
       x="242.43661"
       y="179.59041"
       id="text4234"
       sodipodi:linespacing="125%"><tspan
         sodipodi:role="line"
         id="tspan4236"
         x="242.43661"
         y="179.59041">Fuente: Comfortaa</tspan><tspan
         sodipodi:role="line"
         x="242.43661"
         y="209.59041"
         id="tspan4238">color: #002255</tspan><tspan
         sodipodi:role="line"
         x="242.43661"
         y="239.59041"
         id="tspan4240" /></text>
  </g>
</svg>
