<?xml version="1.0" encoding="UTF-8" standalone="no"?>
<!-- Created with Inkscape (http://www.inkscape.org/) -->

<svg
   xmlns:dc="http://purl.org/dc/elements/1.1/"
   xmlns:cc="http://creativecommons.org/ns#"
   xmlns:rdf="http://www.w3.org/1999/02/22-rdf-syntax-ns#"
   xmlns:svg="http://www.w3.org/2000/svg"
   xmlns="http://www.w3.org/2000/svg"
   xmlns:sodipodi="http://sodipodi.sourceforge.net/DTD/sodipodi-0.dtd"
   xmlns:inkscape="http://www.inkscape.org/namespaces/inkscape"
   width="210mm"
   height="297mm"
   viewBox="0 0 744.09448819 1052.3622047"
   id="svg4326"
   version="1.1"
   inkscape:version="0.91 r13725"
   sodipodi:docname="splash-app.svg">
  <defs
     id="defs4328" />
  <sodipodi:namedview
     id="base"
     pagecolor="#ffffff"
     bordercolor="#666666"
     borderopacity="1.0"
     inkscape:pageopacity="0.0"
     inkscape:pageshadow="2"
     inkscape:zoom="0.175"
     inkscape:cx="1112.942"
     inkscape:cy="750.31128"
     inkscape:document-units="px"
     inkscape:current-layer="layer1"
     showgrid="false"
     inkscape:window-width="1881"
     inkscape:window-height="1056"
     inkscape:window-x="1405"
     inkscape:window-y="24"
     inkscape:window-maximized="1" />
  <metadata
     id="metadata4331">
    <rdf:RDF>
      <cc:Work
         rdf:about="">
        <dc:format>image/svg+xml</dc:format>
        <dc:type
           rdf:resource="http://purl.org/dc/dcmitype/StillImage" />
        <dc:title></dc:title>
      </cc:Work>
    </rdf:RDF>
  </metadata>
  <g
     inkscape:label="Capa 1"
     inkscape:groupmode="layer"
     id="layer1">
    <rect
       style="opacity:1;fill:#ffffff;fill-opacity:1;stroke:#e76302;stroke-width:0;stroke-linecap:round;stroke-linejoin:round;stroke-miterlimit:4;stroke-dasharray:none;stroke-dashoffset:0;stroke-opacity:1"
       id="rect4922"
       width="2208"
       height="2208"
       x="856"
       y="-154.49495"
       inkscape:export-xdpi="72"
       inkscape:export-ydpi="72" />
    <rect
       style="opacity:1;fill:#ffffff;fill-opacity:1;stroke:#e76302;stroke-width:0;stroke-linecap:round;stroke-linejoin:round;stroke-miterlimit:4;stroke-dasharray:none;stroke-dashoffset:0;stroke-opacity:1"
       id="rect4885"
       width="1024"
       height="1024"
       x="-1129.1428"
       y="23.219339"
       inkscape:export-xdpi="72"
       inkscape:export-ydpi="72" />
    <g
       id="g4903"
       inkscape:export-xdpi="72"
       inkscape:export-ydpi="72">
      <circle
         style="opacity:1;fill:#002255;fill-opacity:1;stroke:#e76302;stroke-width:0;stroke-linecap:round;stroke-linejoin:round;stroke-miterlimit:4;stroke-dasharray:none;stroke-dashoffset:0;stroke-opacity:1"
         id="circle4142"
         cx="-618"
         cy="534.93365"
         r="474.28571" />
      <circle
         style="opacity:1;fill:#ffffff;fill-opacity:1;stroke:#e76302;stroke-width:0;stroke-linecap:round;stroke-linejoin:round;stroke-miterlimit:4;stroke-dasharray:none;stroke-dashoffset:0;stroke-opacity:1"
         id="circle4242"
         cx="-618"
         cy="534.93365"
         r="448.99048" />
      <path
         d="m -829.1707,617.62453 q 24.85358,0 42.37088,-17.51743 17.51727,-17.5172 17.51727,-42.37072 0,-24.85374 -17.51727,-42.37095 -17.5173,-17.51743 -42.37088,-17.51743 -24.85359,0 -42.37089,17.51743 -17.51738,17.51721 -17.51738,42.37095 0,24.85352 17.51738,42.37072 17.5173,17.51743 42.37089,17.51743 z m -59.88827,-118.57867 q 0.29947,-0.29946 0.59893,-0.59893 24.55419,-24.55405 59.28934,-24.55405 34.73512,0 59.28929,24.55405 24.55414,24.55428 24.55414,59.28945 0,34.73495 -24.55414,59.28922 -24.55417,24.55406 -59.28929,24.55406 -34.73515,0 -59.28934,-24.55406 -24.55406,-24.55427 -24.55406,-59.28922 l 0,-144.03112 q 0,-4.94082 3.44351,-8.38433 3.59334,-3.59335 8.53417,-3.59335 4.9406,0 8.38433,3.59335 3.59312,3.44351 3.59312,8.38433 l 0,85.3406 z"
         style="font-style:normal;font-variant:normal;font-weight:normal;font-stretch:normal;font-size:medium;line-height:125%;font-family:Comfortaa;-inkscape-font-specification:Comfortaa;letter-spacing:0px;word-spacing:0px;fill:#002255;fill-opacity:1;stroke:none;stroke-width:1px;stroke-linecap:butt;stroke-linejoin:miter;stroke-opacity:1"
         id="path4272"
         inkscape:connector-curvature="0" />
      <path
         d="m -682.4447,437.95985 q 0,6.13868 -4.4916,10.6302 -4.3419,4.3419 -10.48045,4.3419 -6.13852,0 -10.63013,-4.3419 -4.34189,-4.49152 -4.34189,-10.6302 0,-6.13846 4.34189,-10.48035 4.49161,-4.49152 10.63013,-4.49152 6.13855,0 10.48045,4.49152 4.4916,4.34189 4.4916,10.48035 z m -26.94968,47.9107 q 0,-4.94082 3.44357,-8.38433 3.59331,-3.59334 8.53406,-3.59334 4.94078,0 8.38435,3.59334 3.59331,3.44351 3.59331,8.38433 l 0,143.73143 q 0,4.94083 -3.59331,8.53418 -3.44357,3.4435 -8.38435,3.4435 -4.94075,0 -8.53406,-3.4435 -3.44357,-3.59335 -3.44357,-8.53418 l 0,-143.73143 z"
         style="font-style:normal;font-variant:normal;font-weight:normal;font-stretch:normal;font-size:medium;line-height:125%;font-family:Comfortaa;-inkscape-font-specification:Comfortaa;letter-spacing:0px;word-spacing:0px;fill:#002255;fill-opacity:1;stroke:none;stroke-width:1px;stroke-linecap:butt;stroke-linejoin:miter;stroke-opacity:1"
         id="path4274"
         inkscape:connector-curvature="0" />
      <path
         d="m -625.55094,541.56643 101.36064,-65.87699 q 2.8448,-1.79656 6.43814,-1.79656 4.94061,0 8.38433,3.59334 3.59313,3.44351 3.59313,8.38433 0,4.9406 -3.44351,8.38433 -0.89817,0.89817 -1.64694,1.4971 l -69.47011,45.21552 71.2669,80.25016 q 3.29366,3.59334 3.29366,8.38432 0,4.94083 -3.59313,8.53418 -3.44372,3.4435 -8.38433,3.4435 -4.94082,0 -8.68379,-3.59335 l -74.41116,-83.84328 -24.70383,16.02011 0,59.43884 q 0,4.94083 -3.59328,8.53418 -3.44357,3.4435 -8.38435,3.4435 -4.94076,0 -8.53406,-3.4435 -3.44357,-3.59335 -3.44357,-8.53418 l 0,-215.59726 q 0,-4.94082 3.44357,-8.38432 3.5933,-3.59335 8.53406,-3.59335 4.94078,0 8.38435,3.59335 3.59328,3.4435 3.59328,8.38432 l 0,127.56171 z"
         style="font-style:normal;font-variant:normal;font-weight:normal;font-stretch:normal;font-size:medium;line-height:125%;font-family:Comfortaa;-inkscape-font-specification:Comfortaa;letter-spacing:0px;word-spacing:0px;fill:#002255;fill-opacity:1;stroke:none;stroke-width:1px;stroke-linecap:butt;stroke-linejoin:miter;stroke-opacity:1"
         id="path4276"
         inkscape:connector-curvature="0" />
      <path
         d="m -397.97585,497.848 q -24.85374,0 -42.37095,17.51743 -17.5172,17.51721 -17.5172,42.37095 0,24.85352 17.5172,42.37072 17.51721,17.51743 42.37095,17.51743 24.85352,0 42.37072,-17.51743 17.51743,-17.5172 17.51743,-42.37072 0,-24.85374 -17.51743,-42.37095 -17.5172,-17.51743 -42.37072,-17.51743 z m 59.88815,118.57867 q -25.15298,25.15299 -59.88815,25.15299 -34.73517,0 -59.28945,-24.55406 -24.55405,-24.55427 -24.55405,-59.28922 0,-34.73517 24.55405,-59.28945 24.55428,-24.55405 59.28945,-24.55405 34.73517,0 59.28922,24.55405 24.55406,24.55428 24.55406,59.28945 l 0,71.8656 q 0,4.94083 -3.59313,8.53418 -3.44372,3.4435 -8.38432,3.4435 -4.94083,0 -8.53417,-3.4435 -3.44351,-3.59335 -3.44351,-8.53418 l 0,-13.17531 z"
         style="font-style:normal;font-variant:normal;font-weight:normal;font-stretch:normal;font-size:medium;line-height:125%;font-family:Comfortaa;-inkscape-font-specification:Comfortaa;letter-spacing:0px;word-spacing:0px;fill:#002255;fill-opacity:1;stroke:none;stroke-width:1px;stroke-linecap:butt;stroke-linejoin:miter;stroke-opacity:1"
         id="path4278"
         inkscape:connector-curvature="0" />
    </g>
    <g
       id="g4940"
       transform="matrix(0.38666666,0,0,0.38666666,1148.5334,705.02982)"
       inkscape:export-xdpi="72"
       inkscape:export-ydpi="72">
      <circle
         style="opacity:1;fill:#002255;fill-opacity:1;stroke:#e76302;stroke-width:0;stroke-linecap:round;stroke-linejoin:round;stroke-miterlimit:4;stroke-dasharray:none;stroke-dashoffset:0;stroke-opacity:1"
         id="circle4142-3"
         cx="2097.1428"
         cy="635.21942"
         r="214.28571" />
      <circle
         style="opacity:1;fill:#ffffff;fill-opacity:1;stroke:#e76302;stroke-width:0;stroke-linecap:round;stroke-linejoin:round;stroke-miterlimit:4;stroke-dasharray:none;stroke-dashoffset:0;stroke-opacity:1"
         id="circle4242-6"
         cx="2097.1428"
         cy="635.21942"
         r="202.85715" />
      <path
         d="m 2001.7344,672.57964 q 11.2291,0 19.1435,-7.9144 7.9144,-7.9145 7.9144,-19.1435 0,-11.229 -7.9144,-19.1435 -7.9144,-7.9144 -19.1435,-7.9144 -11.229,0 -19.1434,7.9144 -7.9145,7.9145 -7.9145,19.1435 0,11.229 7.9145,19.1435 7.9144,7.9144 19.1434,7.9144 z m -27.0579,-53.5746 q 0.1353,-0.1353 0.2706,-0.2706 11.0937,-11.0938 26.7873,-11.0938 15.6936,0 26.7874,11.0938 11.0937,11.0937 11.0937,26.7873 0,15.6936 -11.0937,26.7873 -11.0938,11.0938 -26.7874,11.0938 -15.6936,0 -26.7873,-11.0938 -11.0937,-11.0937 -11.0937,-26.7873 l 0,-65.0743 q 0,-2.2322 1.5558,-3.7881 1.6235,-1.6234 3.8557,-1.6234 2.2323,0 3.7882,1.6234 1.6234,1.5559 1.6234,3.7881 l 0,38.5576 z"
         style="font-style:normal;font-variant:normal;font-weight:normal;font-stretch:normal;font-size:medium;line-height:125%;font-family:Comfortaa;-inkscape-font-specification:Comfortaa;letter-spacing:0px;word-spacing:0px;fill:#002255;fill-opacity:1;stroke:none;stroke-width:1px;stroke-linecap:butt;stroke-linejoin:miter;stroke-opacity:1"
         id="path4272-2"
         inkscape:connector-curvature="0" />
      <path
         d="m 2068.0263,591.40594 q 0,2.7734 -2.0293,4.8028 -1.9617,1.9617 -4.7352,1.9617 -2.7734,0 -4.8028,-1.9617 -1.9617,-2.0294 -1.9617,-4.8028 0,-2.7734 1.9617,-4.7351 2.0294,-2.0294 4.8028,-2.0294 2.7735,0 4.7352,2.0294 2.0293,1.9617 2.0293,4.7351 z m -12.1761,21.6463 q 0,-2.2323 1.5559,-3.7881 1.6234,-1.6235 3.8557,-1.6235 2.2323,0 3.7881,1.6235 1.6235,1.5558 1.6235,3.7881 l 0,64.939 q 0,2.2323 -1.6235,3.8557 -1.5558,1.5559 -3.7881,1.5559 -2.2323,0 -3.8557,-1.5559 -1.5559,-1.6234 -1.5559,-3.8557 l 0,-64.939 z"
         style="font-style:normal;font-variant:normal;font-weight:normal;font-stretch:normal;font-size:medium;line-height:125%;font-family:Comfortaa;-inkscape-font-specification:Comfortaa;letter-spacing:0px;word-spacing:0px;fill:#002255;fill-opacity:1;stroke:none;stroke-width:1px;stroke-linecap:butt;stroke-linejoin:miter;stroke-opacity:1"
         id="path4274-8"
         inkscape:connector-curvature="0" />
      <path
         d="m 2093.7313,638.21614 45.7955,-29.7637 q 1.2853,-0.8118 2.9088,-0.8118 2.2322,0 3.7881,1.6235 1.6234,1.5558 1.6234,3.7881 0,2.2323 -1.5558,3.7881 -0.4058,0.4059 -0.7441,0.6765 l -31.3871,20.4287 32.1989,36.2576 q 1.4881,1.6235 1.4881,3.7881 0,2.2323 -1.6234,3.8557 -1.5559,1.5559 -3.7881,1.5559 -2.2323,0 -3.9234,-1.6235 l -33.6195,-37.8811 -11.1614,7.238 0,26.855 q 0,2.2323 -1.6235,3.8557 -1.5558,1.5559 -3.7881,1.5559 -2.2322,0 -3.8557,-1.5559 -1.5559,-1.6234 -1.5559,-3.8557 l 0,-97.4085 q 0,-2.2323 1.5559,-3.7881 1.6235,-1.6235 3.8557,-1.6235 2.2323,0 3.7881,1.6235 1.6235,1.5558 1.6235,3.7881 l 0,57.6334 z"
         style="font-style:normal;font-variant:normal;font-weight:normal;font-stretch:normal;font-size:medium;line-height:125%;font-family:Comfortaa;-inkscape-font-specification:Comfortaa;letter-spacing:0px;word-spacing:0px;fill:#002255;fill-opacity:1;stroke:none;stroke-width:1px;stroke-linecap:butt;stroke-linejoin:miter;stroke-opacity:1"
         id="path4276-5"
         inkscape:connector-curvature="0" />
      <path
         d="m 2196.5514,618.46384 q -11.2291,0 -19.1435,7.9144 -7.9144,7.9145 -7.9144,19.1435 0,11.229 7.9144,19.1435 7.9144,7.9144 19.1435,7.9144 11.229,0 19.1434,-7.9144 7.9145,-7.9145 7.9145,-19.1435 0,-11.229 -7.9145,-19.1435 -7.9144,-7.9144 -19.1434,-7.9144 z m 27.0579,53.5747 q -11.3643,11.3643 -27.0579,11.3643 -15.6936,0 -26.7874,-11.0938 -11.0937,-11.0937 -11.0937,-26.7873 0,-15.6936 11.0937,-26.7873 11.0938,-11.0938 26.7874,-11.0938 15.6936,0 26.7873,11.0938 11.0937,11.0937 11.0937,26.7873 l 0,32.4695 q 0,2.2323 -1.6234,3.8557 -1.5559,1.5559 -3.7881,1.5559 -2.2323,0 -3.8558,-1.5559 -1.5558,-1.6234 -1.5558,-3.8557 l 0,-5.9527 z"
         style="font-style:normal;font-variant:normal;font-weight:normal;font-stretch:normal;font-size:medium;line-height:125%;font-family:Comfortaa;-inkscape-font-specification:Comfortaa;letter-spacing:0px;word-spacing:0px;fill:#002255;fill-opacity:1;stroke:none;stroke-width:1px;stroke-linecap:butt;stroke-linejoin:miter;stroke-opacity:1"
         id="path4278-0"
         inkscape:connector-curvature="0" />
    </g>
  </g>
</svg>
